<svg xmlns="http://www.w3.org/2000/svg" width="16" height="15.283" viewBox="0 0 16 15.283"><defs><style>.a{fill:#febb11;}</style></defs><path class="a" d="M15.176,5.12l-4.369-.636L8.854.532a.959.959,0,0,0-1.717,0L5.185,4.483l-4.37.636a.955.955,0,0,0-.53,1.63L3.446,9.823,2.7,14.166a.958.958,0,0,0,.944,1.118.943.943,0,0,0,.444-.112l3.909-2.05L11.9,15.172a.955.955,0,0,0,1.388-1.006l-.747-4.343,3.161-3.074a.955.955,0,0,0-.529-1.63ZM11.542,8.8,11,9.323l.128.743.583,3.387-3.049-1.6L8,11.5V2.034L9.519,5.117l.334.676L10.6,5.9l3.41.5Z" transform="translate(0.004)"/></svg>